<svg width="30" height="30" viewBox="0 0 30 30" fill="none" xmlns="http://www.w3.org/2000/svg">
<g clip-path="url(#clip0_480_17)">
<path d="M23.7432 28.4389L18.751 22.5307V12.1742H19.3754C19.8929 12.1742 20.3129 11.7551 20.3129 11.2367C20.3129 10.7182 19.8929 10.2992 19.3754 10.2992H17.8135C17.296 10.2992 16.876 10.7182 16.876 11.2367V22.8917C16.876 23.1242 16.9623 23.3473 17.1179 23.5198L20.9373 28.1295H9.06384L12.8832 23.5198C13.0388 23.3482 13.1251 23.1242 13.1251 22.8917V11.2367C13.1251 10.7182 12.706 10.2992 12.1876 10.2992H10.6257C10.1073 10.2992 9.68821 10.7182 9.68821 11.2367C9.68821 11.7551 10.1073 12.1742 10.6257 12.1742H11.2501V22.5307L6.2579 28.4389C6.0104 28.7136 5.94665 29.1092 6.09665 29.4476C6.24665 29.7861 6.58321 30.0045 6.95353 30.0045H23.0476C23.4179 30.0045 23.7535 29.7861 23.9045 29.4476C24.0545 29.1092 23.9917 28.7136 23.7432 28.4389ZM14.0626 9.36543C15.0957 9.36543 15.9329 8.52824 15.9329 7.49512C15.9329 6.46293 15.0957 5.62574 14.0626 5.62574C13.0295 5.62574 12.1923 6.46387 12.1923 7.49512C12.1923 8.52824 13.0295 9.36543 14.0626 9.36543ZM20.1704 6.58199C21.9976 6.58199 23.4788 5.1073 23.4788 3.28855C23.4788 1.4698 21.9985 -0.00488281 20.1704 -0.00488281C18.3442 -0.00488281 16.862 1.4698 16.862 3.28855C16.862 5.1073 18.3442 6.58199 20.1704 6.58199ZM20.1554 1.86449C20.9363 1.86449 21.572 2.4973 21.572 3.27449C21.572 4.05168 20.9373 4.68449 20.1554 4.68449C19.3735 4.68449 18.7388 4.05168 18.7388 3.27449C18.7388 2.4973 19.3735 1.86449 20.1554 1.86449Z" fill="#05386B"/>
</g>
<defs>
<clipPath id="clip0_480_17">
<rect width="30" height="30" fill="white"/>
</clipPath>
</defs>
</svg>
